<svg width="200" height="119" viewBox="0 0 200 119" fill="none" xmlns="http://www.w3.org/2000/svg">
<path fill-rule="evenodd" clip-rule="evenodd" d="M1.97064e-06 117.387C23.3866 112.371 41.1193 88.2149 41.1193 59.1716C41.1193 30.1283 23.3866 5.97209 0 0.956006C2.928 0.327992 5.94463 0 9.02617 0C36.7207 0 59.1716 26.492 59.1716 59.1716C59.1716 91.8512 36.7207 118.343 9.02617 118.343C5.94463 118.343 2.928 118.015 1.97064e-06 117.387Z" fill="#17131A"/>
<path d="M95.7754 33.5761H100.003V56.6897C100.003 59.0761 99.4402 61.2068 98.3152 63.0818C97.2015 64.9454 95.6277 66.417 93.5936 67.4966C91.5595 68.5647 89.1731 69.0988 86.4345 69.0988C83.6959 69.0988 81.3095 68.5647 79.2754 67.4966C77.2413 66.417 75.6618 64.9454 74.5368 63.0818C73.4231 61.2068 72.8663 59.0761 72.8663 56.6897V33.5761H77.0936V56.3488C77.0936 58.0534 77.4686 59.5704 78.2186 60.9C78.9686 62.2182 80.0368 63.2579 81.4231 64.0193C82.8209 64.7693 84.4913 65.1443 86.4345 65.1443C88.3777 65.1443 90.0481 64.7693 91.4459 64.0193C92.8436 63.2579 93.9118 62.2182 94.6504 60.9C95.4004 59.5704 95.7754 58.0534 95.7754 56.3488V33.5761Z" fill="#17131A"/>
<path d="M135.744 42.3034C135.54 40.5761 134.71 39.2352 133.256 38.2807C131.801 37.3261 130.017 36.8488 127.903 36.8488C126.358 36.8488 125.006 37.0988 123.846 37.5988C122.699 38.0988 121.801 38.7863 121.153 39.6613C120.517 40.5363 120.199 41.5307 120.199 42.6443C120.199 43.5761 120.42 44.3772 120.864 45.0477C121.318 45.7068 121.898 46.2579 122.602 46.7011C123.307 47.1329 124.045 47.4909 124.818 47.775C125.591 48.0477 126.301 48.2693 126.949 48.4397L130.494 49.3943C131.403 49.6329 132.415 49.9625 133.528 50.3829C134.653 50.8034 135.727 51.3772 136.75 52.1045C137.784 52.8204 138.636 53.7409 139.307 54.8659C139.977 55.9909 140.312 57.3716 140.312 59.0079C140.312 60.8943 139.818 62.5988 138.829 64.1216C137.852 65.6443 136.42 66.8545 134.534 67.7522C132.659 68.65 130.381 69.0988 127.699 69.0988C125.199 69.0988 123.034 68.6954 121.204 67.8886C119.386 67.0818 117.954 65.9568 116.909 64.5136C115.875 63.0704 115.29 61.3943 115.153 59.4852H119.517C119.631 60.8034 120.074 61.8943 120.846 62.7579C121.631 63.6102 122.619 64.2466 123.812 64.667C125.017 65.0761 126.312 65.2807 127.699 65.2807C129.312 65.2807 130.761 65.0193 132.045 64.4966C133.329 63.9625 134.346 63.2238 135.096 62.2807C135.846 61.3261 136.221 60.2125 136.221 58.9397C136.221 57.7807 135.898 56.8375 135.25 56.1102C134.602 55.3829 133.75 54.792 132.693 54.3375C131.636 53.8829 130.494 53.4852 129.267 53.1443L124.971 51.917C122.244 51.1329 120.085 50.0136 118.494 48.5591C116.903 47.1045 116.108 45.2011 116.108 42.8488C116.108 40.8943 116.636 39.1897 117.693 37.7352C118.761 36.2693 120.193 35.1329 121.989 34.3261C123.795 33.5079 125.812 33.0988 128.04 33.0988C130.29 33.0988 132.29 33.5022 134.04 34.3091C135.79 35.1045 137.176 36.1954 138.199 37.5818C139.233 38.9682 139.778 40.542 139.835 42.3034H135.744Z" fill="#17131A"/>
<path d="M160.227 68V33.0909H164.455V50.4091H164.864L180.545 33.0909H186.068L171.409 48.8409L186.068 68H180.955L168.818 51.7727L164.455 56.6818V68H160.227Z" fill="#17131A"/>
</svg>
