<svg width="169" height="100" viewBox="0 0 169 100" fill="none" xmlns="http://www.w3.org/2000/svg">
<path fill-rule="evenodd" clip-rule="evenodd" d="M-2.41994e-07 99.1922C19.7617 94.9536 34.7458 74.5416 34.7458 50C34.7458 25.4584 19.7617 5.04642 -1.90735e-06 0.807825C2.47416 0.277154 5.02321 0 7.62711 0C31.029 0 50 22.3858 50 50C50 77.6142 31.029 100 7.62711 100C5.02321 100 2.47416 99.7228 -2.41994e-07 99.1922Z" fill="#17131A"/>
<path d="M85.1364 30.0909H89.3636V53.2045C89.3636 55.5909 88.8011 57.7216 87.6761 59.5966C86.5625 61.4602 84.9886 62.9318 82.9545 64.0114C80.9205 65.0795 78.5341 65.6136 75.7955 65.6136C73.0568 65.6136 70.6705 65.0795 68.6364 64.0114C66.6023 62.9318 65.0227 61.4602 63.8977 59.5966C62.7841 57.7216 62.2273 55.5909 62.2273 53.2045V30.0909H66.4545V52.8636C66.4545 54.5682 66.8295 56.0852 67.5795 57.4148C68.3295 58.733 69.3977 59.7727 70.7841 60.5341C72.1818 61.2841 73.8523 61.6591 75.7955 61.6591C77.7386 61.6591 79.4091 61.2841 80.8068 60.5341C82.2045 59.7727 83.2727 58.733 84.0114 57.4148C84.7614 56.0852 85.1364 54.5682 85.1364 52.8636V30.0909Z" fill="#17131A"/>
<path d="M118.318 38.8182C118.114 37.0909 117.284 35.75 115.83 34.7955C114.375 33.8409 112.591 33.3636 110.477 33.3636C108.932 33.3636 107.58 33.6136 106.42 34.1136C105.273 34.6136 104.375 35.3011 103.727 36.1761C103.091 37.0511 102.773 38.0455 102.773 39.1591C102.773 40.0909 102.994 40.892 103.438 41.5625C103.892 42.2216 104.472 42.7727 105.176 43.2159C105.881 43.6477 106.619 44.0057 107.392 44.2898C108.165 44.5625 108.875 44.7841 109.523 44.9545L113.068 45.9091C113.977 46.1477 114.989 46.4773 116.102 46.8977C117.227 47.3182 118.301 47.892 119.324 48.6193C120.358 49.3352 121.21 50.2557 121.881 51.3807C122.551 52.5057 122.886 53.8864 122.886 55.5227C122.886 57.4091 122.392 59.1136 121.403 60.6364C120.426 62.1591 118.994 63.3693 117.108 64.267C115.233 65.1648 112.955 65.6136 110.273 65.6136C107.773 65.6136 105.608 65.2102 103.778 64.4034C101.96 63.5966 100.528 62.4716 99.483 61.0284C98.4489 59.5852 97.8636 57.9091 97.7273 56H102.091C102.205 57.3182 102.648 58.4091 103.42 59.2727C104.205 60.125 105.193 60.7614 106.386 61.1818C107.591 61.5909 108.886 61.7955 110.273 61.7955C111.886 61.7955 113.335 61.5341 114.619 61.0114C115.903 60.4773 116.92 59.7386 117.67 58.7955C118.42 57.8409 118.795 56.7273 118.795 55.4545C118.795 54.2955 118.472 53.3523 117.824 52.625C117.176 51.8977 116.324 51.3068 115.267 50.8523C114.21 50.3977 113.068 50 111.841 49.6591L107.545 48.4318C104.818 47.6477 102.659 46.5284 101.068 45.0739C99.4773 43.6193 98.6818 41.7159 98.6818 39.3636C98.6818 37.4091 99.2102 35.7045 100.267 34.25C101.335 32.7841 102.767 31.6477 104.562 30.8409C106.369 30.0227 108.386 29.6136 110.614 29.6136C112.864 29.6136 114.864 30.017 116.614 30.8239C118.364 31.6193 119.75 32.7102 120.773 34.0966C121.807 35.483 122.352 37.0568 122.409 38.8182H118.318Z" fill="#17131A"/>
<path d="M136.227 69V34.0909H140.455V51.4091H140.864L156.545 34.0909H162.068L147.409 49.8409L162.068 69H156.955L144.818 52.7727L140.455 57.6818V69H136.227Z" fill="#17131A"/>
</svg>
